<svg xmlns="http://www.w3.org/2000/svg" viewBox="0 0 513 90" width="513" height="90">
  <path d="M27 45L27 36L9 36L9 45ZM0 72L0 27L27 27Q30.73 27 33.33 29.67Q36 32.27 36 36L36 45Q36 46.9 34.66 48.23Q33.33 49.5 31.5 49.5Q33.33 49.5 34.66 50.84Q36 52.17 36 54L36 72L27 72L27 54L9 54L9 72Z M54 72Q50.2 72 47.6 69.4Q45 66.8 45 63L45 27L54 27L54 63L72 63L72 27L81 27L81 63Q81 66.8 78.33 69.4Q75.73 72 72 72Z M90 72L90 27L126 27L126 36L99 36L99 45L117 45L117 54L99 54L99 72Z M148.5 72L148.5 36L135 36L135 27L171 27L171 36L157.5 36L157.5 72Z M180 72L180 27L216 27L216 36L189 36L189 45L207 45L207 54L189 54L189 63L216 63L216 72Z M234 72Q230.2 72 227.6 69.4Q225 66.8 225 63L225 36Q225 32.27 227.6 29.67Q230.2 27 234 27L252 27Q255.73 27 258.33 29.67Q261 32.27 261 36L261 45L252 45L252 36L234 36L234 63L252 63L252 54L261 54L261 63Q261 66.8 258.33 69.4Q255.73 72 252 72Z M270 72L270 27L279 27L279 45L297 45L297 27L306 27L306 72L297 72L297 54L279 54L279 72Z M360 45L360 36L342 36L342 45ZM333 72L333 27L360 27Q363.73 27 366.33 29.67Q369 32.27 369 36L369 45Q369 48.8 366.33 51.4Q363.73 54 360 54L342 54L342 72Z M405 45L405 36L387 36L387 45ZM378 72L378 36Q378 32.27 380.6 29.67Q383.2 27 387 27L405 27Q408.73 27 411.33 29.67Q414 32.27 414 36L414 72L405 72L405 54L387 54L387 72Z M432 72Q428.2 72 425.6 69.4Q423 66.8 423 63L423 54L432 54L432 63L450 63L450 58.5L423 45L423 36Q423 32.27 425.6 29.67Q428.2 27 432 27L450 27Q453.73 27 456.33 29.67Q459 32.27 459 36L459 45L450 45L450 36L432 36L432 40.5L459 54L459 63Q459 66.8 456.33 69.4Q453.73 72 450 72Z M477 72Q473.2 72 470.6 69.4Q468 66.8 468 63L468 54L477 54L477 63L495 63L495 58.5L468 45L468 36Q468 32.27 470.6 29.67Q473.2 27 477 27L495 27Q498.73 27 501.33 29.67Q504 32.27 504 36L504 45L495 45L495 36L477 36L477 40.5L504 54L504 63Q504 66.8 501.33 69.4Q498.73 72 495 72Z" fill="currentColor"/>
</svg>